<?xml version="1.0" encoding="utf-8"?>
<!-- Uploaded to SVGRepo https://www.svgrepo.com -->
<svg version="1.1" id="Layer_1" xmlns="http://www.w3.org/2000/svg" xmlns:xlink="http://www.w3.org/1999/xlink" x="0px" y="0px"
	 width="256px" height="253px" viewBox="0 0 256 253" enable-background="new 0 0 256 253" xml:space="preserve">
<path fill="#FFFFFF" d="M117.758,221.799c0.92,0.092,1.656,1.012,1.564,2.024c-0.092,1.012-0.92,1.564-2.024,1.564h-35.23
	c-1.104,0-1.932-0.552-2.024-1.564c-0.092-1.012,0.552-1.932,1.564-2.024l14.533-1.84v-24.927
	c-27.779-8.462-12.326-39.645-9.29-47.923h25.663c3.035,8.278,18.489,39.461-9.29,47.923v24.927L117.758,221.799 M176.168,160.447
	v61.537c0,1.84-1.564,3.403-3.403,3.403h-33.482c-1.84,0-3.403-1.472-3.403-3.403v-61.537c0-8.003,5.611-14.717,13.062-16.557
	v-27.503h14.257v27.503C170.649,145.729,176.168,152.444,176.168,160.447z M171.936,171.117H140.11v31.826h31.826V171.117z M2,69
	c0,13.678,9.625,25.302,22,29.576V233H2v18h252v-18h-22V98.554c12.89-3.945,21.699-15.396,22-29.554v-8H2V69z M65.29,68.346
	c0,6.477,6.755,31.47,31.727,31.47c21.689,0,31.202-19.615,31.202-31.47c0,11.052,7.41,31.447,31.464,31.447
	c21.733,0,31.363-20.999,31.363-31.447c0,14.425,9.726,26.416,22.954,30.154V233H42V98.594C55.402,94.966,65.29,82.895,65.29,68.346
	z M222.832,22H223V2H34v20L2,54h252L222.832,22z"/>
</svg>
